<?xml version="1.0" encoding="UTF-8"?>
<svg width="232px" height="224px" viewBox="0 0 232 224" version="1.1" xmlns="http://www.w3.org/2000/svg" xmlns:xlink="http://www.w3.org/1999/xlink">
    <!-- Generator: Sketch 49.1 (51147) - http://www.bohemiancoding.com/sketch -->
    <title>earth</title>
    <desc>Created with Sketch.</desc>
    <defs></defs>
    <g id="Page-1" stroke="none" stroke-width="1" fill="none" fill-rule="evenodd">
        <g id="earth" transform="translate(1.000000, 1.000000)" stroke="#000000">
            <path d="M50.3018876,23.0714472 C42.5054987,29.8815929 36.3145424,36.7582406 27.9010892,43.9180284 C-15.5159323,80.8655994 1.12503099,128.590159 21.0341424,173.073069 C31.4644646,196.377528 49.535096,204.59391 72.2562796,214.216517 C114.682228,232.184253 166.461732,218.37923 199.664347,187.711804 C267.058186,125.46383 211.911808,20.4019876 132.839621,2.26760726 C126.639014,0.84556278 117.233745,0.144295368 112.195787,0.396230871 C107.157829,0.648166375 91.1196512,4.25515726 81.2282105,8.2964169 C77.8374529,9.68174916 70.8486447,12.3520364 61.5400972,16.9047037 C59.1848267,18.0566303 55.4387569,20.1122114 50.3018876,23.0714472 Z" id="Path-6" fill="#77A6DD"></path>
            <path d="M229.294096,128.635955 C228.218359,133.791553 227.858455,126.187582 227.467452,125.576828 C226.673276,124.33631 226.073007,127.13325 225.060364,126.063599 C224.38927,125.354725 226.007757,119.459067 225.060364,119.22388 C223.485017,118.832805 224.323946,116.599851 223.560241,115.229526 C223.134709,114.46599 223.464185,113.119539 223.032163,112.404919 C221.721999,110.237738 219.746466,109.135944 219.487181,109.527771 C218.801747,110.563586 219.732154,113.143218 219.487181,114.331594 C219.248695,115.488497 217.832547,115.249838 217.35099,116.574083 C216.543009,118.795969 214.481761,121.295758 214.13061,123.862259 C213.783547,126.398882 214.99187,129.215146 214.766924,131.837899 C214.548672,134.382614 212.910789,136.739144 211.718079,138.868181 C211.428095,139.385815 210.476878,139.647405 209.992479,139.304779 C208.674525,138.372561 207.557217,138.164578 206.58182,136.862543 C206.242522,136.409622 205.836539,135.001469 205.560231,134.512598 C205.081143,133.664949 202.163156,131.891918 200.006571,129.483705 C197.996803,127.239439 196.776934,124.426916 195.397808,121.7382 C193.56256,118.160236 195.564293,113.977566 193.508313,112.807452 C189.674022,110.625251 187.548215,119.202897 185.086972,120.15745 C183.415636,120.805651 180.780737,113.744393 180.484446,113.658557 C178.629445,113.121163 177.970487,111.705158 177.31303,110.215288 C176.710261,108.849347 176.177755,107.296685 173.262391,108.94564 C172.705894,109.260399 167.447096,122.197691 163.98079,119.22388 C158.259976,114.315882 170.223204,104.48131 163.722209,100.827001 C159.899616,98.6782616 154.972062,100.233609 150.596989,99.9369128 L149.059801,100.46057 C147.806956,113.581477 162.77809,120.508061 161.394987,123.250715 C159.327058,127.351358 154.364544,129.659284 152.703313,133.940863 C151.497511,137.04864 152.414381,148.344518 150.350336,159.415396 C149.993328,161.330272 147.068574,161.820153 146.686115,163.78064 C145.978994,167.405351 143.021075,171.986039 142.103425,175.433426 C138.916973,187.404151 136.221981,196.092188 126.743447,194.522704 C122.589645,193.834905 118.71314,196.923335 116.782253,194.522704 C115.430061,192.841551 114.790131,189.599153 114.331746,186.166905 C113.883563,182.811054 113.608934,179.273712 113.011796,176.836724 C111.953527,172.517814 109.195027,168.557564 108.650666,163.78064 C108.490734,162.377195 108.834151,160.805204 108.650666,159.415396 C108.323989,156.940986 107.237238,155.099096 106.756213,152.73355 C106.359641,150.783313 105.08421,150.807357 104.344332,149.005091 C103.661917,147.3428 100.912049,145.894776 100.170217,144.41518 C99.7857062,143.648267 97.4973814,143.053764 96.6564203,142.360963 C95.0170355,141.010406 96.9266896,137.599544 94.5352968,136.438102 C93.4635917,135.917601 92.6200028,134.678124 91.5267129,134.360282 C90.8340435,134.158908 87.5639546,136.550832 86.8938898,136.438102 C83.0432839,135.790288 82.3725553,133.891125 82.3006211,133.860301 C81.005982,133.305538 74.2981145,138.346592 72.0782558,136.438102 C71.1435998,135.634546 70.9868676,132.749117 69.9711706,131.837899 C67.9318085,130.008317 64.19958,127.244592 62.4770027,125.193786 C58.6388611,120.624305 65.0948847,111.333273 66.3205707,108.095535 C68.5386454,102.23633 67.7158904,99.7593634 72.0782558,95.6501982 C73.0019995,95.7764429 74.698933,89.0322787 93.9289353,80.7136163 C108.946933,74.2170152 110.310618,87.5540945 122.501401,88.2046467 C137.361057,88.9976214 133.100683,81.9764034 145.811354,87.8287987 C148.917938,85.6840702 149.365437,98.9664297 149.961583,97.5905147 C150.217941,96.9988369 155.747158,89.4472282 151.527358,83.6905375 C150.497683,82.285846 150.602164,80.8159417 149.961583,79.4532001 C149.272441,77.9871529 151.913137,77.1517744 151.527358,76.1390676 C149.256795,70.1786335 148.274871,70.8716832 145.344821,69.3479285 C144.434637,68.8745928 140.956696,70.5427243 139.173979,68.820225 C133.431515,63.2717319 139.160205,59.6061472 130.318581,60.3364544 C129.71907,60.3859732 128.983402,57.6314275 128.298516,57.4790778 C125.602702,56.879407 122.606955,57.966185 121.416404,60.0129042 C120.455105,61.6655085 122.984729,63.1150034 123.177002,64.4028469 C123.623811,67.3955615 124.850934,69.8409728 126.66627,71.6866973 C129.021684,74.0815406 131.586579,75.5564473 126.66627,76.8323359 C124.835388,77.3071032 122.987304,75.4797993 119.024868,76.1390676 C117.109137,76.457806 115.603978,78.6018148 113.076867,78.9594288 C112.409868,79.0538164 110.393322,78.5489373 110.035306,77.7409112 C109.561251,76.6709935 111.548774,76.4311275 111.548774,74.5180859 C111.548774,72.1060745 118.767867,74.3112641 120.43276,71.6866973 C122.285815,68.7655061 115.923699,55.3221767 113.743458,54.4501807 C112.392584,53.9098935 110.305211,53.9929055 109.15165,55.2657594 C108.365562,56.1331397 108.551894,58.2075704 107.590808,58.4510276 C105.689131,58.9327499 103.682431,56.9756059 101.786396,57.4790778 C100.412488,57.8439045 101.261589,60.0133872 100.823459,61.8944215 C100.497775,63.2926879 98.3014069,63.2872164 97.6446913,64.4028469 C97.0796824,65.3626858 98.0601006,67.5126208 97.6446913,67.9210217 C96.3996017,69.1451056 94.5826399,66.5025247 93.1082941,66.6749186 C91.1130797,66.9082172 89.3047787,74.1121455 87.2296082,76.8323359 C84.5588025,80.3333015 80.4752452,78.2536227 77.5084407,81.5075486 C76.8161911,82.2667927 75.4442059,91.5340227 72.045762,89.6759115 C70.3869565,88.7689538 72.045762,84.6034108 70.1291585,81.3594172 C68.1270045,77.9706229 72.2878383,75.9761545 75.3472055,72.882937 C77.0081633,71.2036016 77.6550769,68.5082447 78.3933308,66.6749186 C79.0298621,65.0942032 73.1924594,65.8849731 70.1291585,63.6504523 C68.4335865,62.4136196 70.7547977,60.081071 70.1291585,58.4510276 C69.0683319,55.6871447 66.366307,53.6611502 70.8828095,53.106603 C71.1874794,53.172857 72.4178645,53.754585 72.6781605,53.8117078 C75.1198976,54.3475549 70.0643792,55.5562234 75.1725764,45.1283316 C75.6409174,44.1722586 75.4647434,42.2107745 76.1310786,41.0663796 C79.3512599,35.5358913 85.1811086,42.7068605 87.4683276,37.1694845 C88.6697898,34.2607348 87.2803926,29.2668174 90.2178541,28.1373679 C92.7578207,27.1607546 93.7443421,32.3873459 96.0183675,33.8820072 C96.3385295,34.0924418 93.2094524,30.6507578 97.4375075,25.8901338 C97.576493,25.7336416 98.9871409,23.1443868 100.444561,20.9930441 C102.826541,17.4769296 108.755653,15.4934698 109.536007,13.6568748 C110.190426,12.1166725 111.809787,16.228282 112.357,17.8097513 C114.087722,22.811611 116.356802,21.5884765 119.440589,25.8901338 C121.176275,28.3112895 124.492756,25.4310613 127.137801,26.8015866 C128.106855,27.3037001 135.415604,25.3025506 135.884633,27.2241128 C135.911563,27.3344446 140.918729,32.0869136 135.315078,33.8820072 C129.769296,35.6585624 124.328131,35.8258546 124.440013,37.1694845 C124.502498,37.9198935 123.580322,39.5315111 131.894751,40.8026018 C134.434528,41.1908771 139.93389,37.3617527 142.07948,35.9483631 C145.947724,33.4001901 145.403801,30.3874636 149.821248,28.9936713 C152.635011,28.1058729 155.763061,28.5046194 158.672748,28.9936713 C160.278923,29.2636325 161.889139,30.0464959 163.025732,31.2130433 C165.477233,33.7291528 166.83583,37.1508517 169.174484,39.772179 C169.9561,40.6482691 171.058969,41.4196759 172.22807,41.5276659 C180.557662,42.2970723 190.720892,42.8251293 199.08122,43.1062324 C205.667374,50.7763771 210.136426,56.5197844 212.488373,60.3364544 C217.892872,69.1067133 220.934155,78.2908571 223.032163,83.6905375 C225.590673,90.2754194 227.581534,99.267894 229.294096,110.215288 C229.82519,113.610257 229.82519,119.750479 229.294096,128.635955 Z" id="Path-7" fill="#417505"></path>
            <path d="M22.6983006,176.498836 C24.7916835,161.911245 17.7018298,154.824865 18.9898182,141.992018 C20.0374283,131.554176 37.0514877,122.30753 34.2928304,111.471754 C33.6581113,108.978631 30.4231703,107.793688 29.5721168,105.365882 C27.7621087,100.20246 29.428406,91.9912151 20.2177495,92.490146 C18.5233063,92.5819321 16.9212354,94.467161 15.324216,93.893496 C-3.21143732,87.2353084 21.42352,87.9300852 1.27902124,88.8141486 C0.556617353,96.3369214 0.271670784,101.854166 0.424181538,105.365882 C0.521164159,107.599007 1.01406356,110.159863 1.27902124,112.289743 C2.0227162,118.267985 3.00104263,123.366974 4.06415419,127.719063 C6.15591298,136.282153 10.7137259,149.235139 18.4427555,167.22807 C19.2625191,169.136453 20.6810341,172.226708 22.6983006,176.498836 Z" id="Path-12" fill="#417505"></path>
            <path d="M4.51972026,76.0189749 C9.11525843,75.6677043 13.7272823,74.4411011 18.3063348,74.965163 C22.3840582,75.431849 26.1719125,80.5030244 29.9632357,78.9309262 C35.1888953,76.7640705 36.5639477,69.6679634 40.6118036,65.7160469 C42.0139316,64.3471512 45.3623223,65.1641156 45.9718211,63.3017651 C47.5291216,58.5433642 48.0924128,54.6183687 48.1273778,51.0807798 C48.2073768,42.9868489 45.521667,36.9209328 45.6478401,27.5412007 C39.2791857,31.7774118 35.0639932,34.8364898 33.0022627,36.7184346 C23.3528859,45.5263725 19.2688045,51.9231922 15.9720211,55.8091156 C11.1858314,61.4506044 7.36839775,68.1872241 4.51972026,76.0189749 Z" id="Path-13" fill="#417505"></path>
            <path d="M69.1928457,212.909272 C73.9343496,212.8482 81.241042,213.463794 85.9504043,212.909272 C95.033595,211.839736 103.842415,208.075441 112.986982,208.234037 C115.367876,208.27533 123.910334,215.70053 128.612245,214.472448 C129.91601,214.13192 130.109967,212.062032 131.32149,211.472138 C143.269109,205.65481 151.927563,204.747544 162.958848,211.472138 C156.870476,213.706898 152.124483,215.322282 148.72087,216.318292 C136.113777,220.007543 122.83381,221.853457 115.596563,222.010922 C108.57059,222.16379 98.3830102,221.746327 86.8306864,218.953898 C83.0710647,218.045122 77.1917844,216.030246 69.1928457,212.909272 Z" id="Path-14" fill="#FFFFFF"></path>
            <path d="M72.4220129,12.1632448 C74.2176601,11.7060204 80.6245775,10.1172791 84.0394896,9.80431239 C87.3278717,9.50294179 87.5798757,10.4822968 91.6433448,9.80431239 C94.9326605,9.25549448 98.5929085,9.17140316 101.646267,8.46677493 C104.516957,7.80430136 106.846056,6.48899631 107.983276,6.91032186 C111.734159,8.29997633 114.601968,12.0321214 118.56594,12.568025 C122.737626,13.1320103 128.259154,9.16222936 133.312377,9.80431239 C134.341412,9.93506569 134.878397,11.499691 135.91566,11.5093035 C141.109601,11.5574363 149.403515,10.316701 154.572344,9.80431239 C145.443083,6.39517018 139.014075,4.18859959 135.28532,3.18460062 C132.390219,2.40507 129.001071,1.28775351 125.783565,0.923794965 C123.623404,0.679441476 118.159314,0.0624593832 114.42653,0.127032085 C113.033344,0.151132547 108.057114,0.663462083 102.997372,1.74043725 C99.4152427,2.50289977 94.8725385,3.73864364 92.5543287,4.35547857 C88.7884961,5.35750055 82.0777241,7.96008929 72.4220129,12.1632448 Z" id="Path-8" fill="#FFFFFF"></path>
        </g>
    </g>
</svg>