<?xml version="1.0" encoding="UTF-8"?>
<svg width="261px" height="242px" viewBox="0 0 261 242" version="1.1" xmlns="http://www.w3.org/2000/svg" xmlns:xlink="http://www.w3.org/1999/xlink">
    <!-- Generator: Sketch 49.1 (51147) - http://www.bohemiancoding.com/sketch -->
    <title>Group</title>
    <desc>Created with Sketch.</desc>
    <defs>
        <rect id="path-1" x="10.4671432" y="9.6223045" width="20.9069901" height="52.8300018" rx="10.4534951"></rect>
        <rect id="path-2" x="103.840197" y="55.9681227" width="20.9069901" height="52.8300018" rx="10.4534951"></rect>
        <rect id="path-3" x="32.3142997" y="1.01712271" width="20.9069901" height="94.8300018" rx="10.4534951"></rect>
        <rect id="path-4" x="79.3816662" y="25.1525773" width="20.9069901" height="94.8300018" rx="10.4534951"></rect>
        <rect id="path-5" x="56.3142997" y="9.01712271" width="20.9069901" height="104.830002" rx="10.4534951"></rect>
    </defs>
    <g id="Page-1" stroke="none" stroke-width="1" fill="none" fill-rule="evenodd">
        <g id="Group" transform="translate(0.000000, 2.000000)">
            <g id="body" transform="translate(82.000000, 123.000000)">
                <polygon id="Triangle-2" stroke="#000000" fill="#000000" transform="translate(137.500000, 95.000000) rotate(124.000000) translate(-137.500000, -95.000000) " points="137.5 89 143 101 132 101"></polygon>
                <ellipse id="Oval" stroke="#000000" fill="#000000" transform="translate(124.181886, 87.065868) rotate(23.000000) translate(-124.181886, -87.065868) " cx="124.181886" cy="87.0658676" rx="11" ry="13"></ellipse>
                <g id="Rectangle" transform="translate(20.920638, 36.037305) rotate(24.000000) translate(-20.920638, -36.037305) ">
                    <use fill="#F5A623" fill-rule="evenodd" xlink:href="#path-1"></use>
                    <rect stroke="#F5A623" stroke-width="1" x="10.9671432" y="10.1223045" width="19.9069901" height="51.8300018" rx="9.95349506"></rect>
                </g>
                <g id="Rectangle" transform="translate(114.293692, 82.383124) rotate(24.000000) translate(-114.293692, -82.383124) ">
                    <use fill="#F5A623" fill-rule="evenodd" xlink:href="#path-2"></use>
                    <rect stroke="#FFFFFF" stroke-width="2" x="104.840197" y="56.9681227" width="18.9069901" height="50.8300018" rx="9.45349506"></rect>
                </g>
                <g id="Rectangle" transform="translate(42.767795, 48.432124) rotate(24.000000) translate(-42.767795, -48.432124) ">
                    <use fill="#F5A623" fill-rule="evenodd" xlink:href="#path-3"></use>
                    <rect stroke="#F5A623" stroke-width="1" x="32.8142997" y="1.51712271" width="19.9069901" height="93.8300018" rx="9.95349506"></rect>
                </g>
                <g id="Rectangle" transform="translate(89.835161, 72.567578) rotate(24.000000) translate(-89.835161, -72.567578) ">
                    <use fill="#F5A623" fill-rule="evenodd" xlink:href="#path-4"></use>
                    <rect stroke="#F5A623" stroke-width="1" x="79.8816662" y="25.6525773" width="19.9069901" height="93.8300018" rx="9.95349506"></rect>
                </g>
                <g id="Rectangle" transform="translate(66.767795, 61.432124) rotate(24.000000) translate(-66.767795, -61.432124) ">
                    <use fill="#F5A623" fill-rule="evenodd" xlink:href="#path-5"></use>
                    <rect stroke="#F5A623" stroke-width="1" x="56.8142997" y="9.51712271" width="19.9069901" height="103.830002" rx="9.95349506"></rect>
                </g>
            </g>
            <g id="head" transform="translate(0.000000, 104.000000)">
                <path d="M69.8767697,74.4623375 L44.319961,93.7170098 L39.5852607,69.3713008 C39.2922497,69.0789896 39.00586,68.7776469 38.726383,68.4672563 C28.1941901,56.770071 31.4676239,36.6525396 46.037802,23.5334922 C60.6079802,10.4144449 80.9574727,9.26179791 91.4896656,20.9589832 C102.021859,32.6561685 98.7484248,52.7736999 84.1782466,65.8927473 C79.7928843,69.8413452 74.8839728,72.7059045 69.8767697,74.4623375 Z" id="Combined-Shape" stroke="#FFFFFF" stroke-width="2" fill="#000000"></path>
                <path d="M56.0337066,56.4710355 C52.3281991,57.0864417 48.732773,56.1260003 46.3907761,53.5249493 C42.3118484,48.9948412 43.5795901,41.2036854 49.2223563,36.1229158 C54.8651226,31.0421463 62.7461127,30.595747 66.8250404,35.1258551 C67.8674185,36.2835333 68.5606227,37.6541802 68.9208689,39.1381368 C66.1726969,39.5945499 63.363976,40.9177384 60.9611153,43.0812838 C56.7603693,46.8636525 54.9842742,52.1481249 56.0337066,56.4710355 Z" id="Combined-Shape" stroke="#000000" fill="#FFFFFF" transform="translate(56.460434, 44.325402) rotate(11.000000) translate(-56.460434, -44.325402) "></path>
                <path d="M55.3939856,17.5182354 C56.2587595,16.3368072 56.2587595,15.3540519 55.3939856,14.5699692 C53.9506845,13.2613412 48.6522356,10.7139038 47.1578751,10.3309205 C44.3204644,9.60373255 39.55672,10.075025 32.8666418,11.7447979 C30.6768062,12.1989369 29.1136439,12.6367263 28.1771549,13.0581661 C25.077155,14.4532316 22.7955615,16.3817597 21.4826761,17.5182354 C20.3728137,18.4789678 19.0349029,20.0974722 17.4689436,22.3737488 C16.7183717,23.4647791 15.4746357,25.4413267 13.7377356,28.3033916 C11.8340701,32.9075343 10.6566635,35.9372269 10.2055156,37.3924694 C7.73904782,45.3484175 7.8505181,48.2690963 8.16351685,49.7799541 C8.22821732,50.092266 8.3814994,50.5731853 8.62336308,51.222712 L8.62337806,51.2227065 C9.23590694,52.8676574 10.9578751,53.8187896 12.6764001,53.4614003 C12.6764001,53.4614003 12.6764001,53.4614003 12.6764001,53.4614003 C13.2049129,53.3514893 14.9042842,53.269704 16.4418172,52.1514134 C17.4668392,51.4058863 18.0485516,50.6153999 18.1869543,49.7799541 C18.8788624,47.761273 18.8788624,46.2951153 18.1869543,45.3814808 C17.4950463,44.4678462 14.4607282,46.8077068 9.08400005,52.4010624" id="Path-2" stroke="#000000" stroke-width="3" transform="translate(32.021283, 31.768128) rotate(30.000000) translate(-32.021283, -31.768128) "></path>
            </g>
            <g id="wings" transform="translate(96.000000, 0.000000)" stroke="#000000">
                <path d="M5.86561052,128.13254 C25.2204935,102.876371 40.9633215,71.9623909 99.3944147,49.194103 C104.572946,47.1762341 118.571419,43.4557807 134.085246,42.0764658 C139.893915,41.5600243 149.0195,41.5600243 161.462,42.0764658 C162.03612,47.5126913 162.03612,53.5887231 161.462,60.3045611 C161.115386,64.3591116 159.779691,80.0080475 155.496441,90.8083448 C153.622175,95.5343428 148.918424,100.849683 141.385188,106.754366 C133.190603,112.019354 124.34596,115.141728 114.851262,116.121489 C110.686943,116.551206 98.9271426,117.304608 91.6261874,116.121489 C86.5894661,115.305288 74.6685779,114.33545 67.2856548,114.192462 C63.0752418,114.110917 56.8599642,115.382036 48.6398221,118.00582 L35.5645173,122.595723" id="Path-3" stroke-width="5" stroke-linecap="round"></path>
                <path d="M40.3218253,111.314371 C51.9147372,96.2035796 61.9087303,87.1625091 70.3038046,84.1911597 C83.4703522,79.5309969 104.292043,74.4305067 115.156023,70.9231471 C132.817647,65.2212159 131.319788,66.1899088 140.937817,60.0674821 C141.886441,59.4636287 142.556675,58.463784 142.948519,57.0679481 C144.975822,65.1522841 145.247135,71.9503568 143.762458,77.4621662 C142.956583,80.4539493 142.427543,84.0925748 140.389773,87.5932303 C139.890386,88.4511203 138.961801,89.9047695 138.239234,90.8601921 C137.61715,91.6827493 136.603791,92.8155828 135.199159,94.2586926 C134.027778,95.496821 133.175762,96.3039985 132.643112,96.6802252 C129.0709,99.2033864 126.660364,100.099087 125.447315,100.506885 C119.866505,102.38302 115.689342,102.190772 111.99946,102.55338 C99.5289072,103.778873 84.4910939,103.084638 76.7352076,104.087047 C63.9791748,105.7357 51.8413807,108.144808 40.3218253,111.314371 Z" id="Path-4" fill="#000000"></path>
                <path d="M2.10461322,114.610584 C0.874828138,91.4745589 0.469655842,76.5004848 0.889096335,69.6883613 C1.30853683,62.8762378 3.05197029,56.1156427 6.11939674,49.4065759 C10.3284607,42.0414848 13.6832863,36.7868823 16.1838737,33.6427686 C21.3272125,27.1757911 27.956947,21.3566998 32.0986801,18.1387723 C36.3654066,14.8237309 42.7733233,10.9006545 50.7115393,7.35527868 C53.7099298,6.01613383 56.5873173,4.33047908 62.2786662,2.34317331 C63.0289559,2.08118711 64.6962024,1.68301177 67.2804058,1.1486473 C70.0413731,0.784567717 71.9058036,0.55876757 72.8736972,0.471246858 C75.5614396,0.228210719 76.8878454,0.294870826 77.5929059,0.471246858 C81.477729,1.44306363 84.0524521,3.14611286 85.1003052,4.20620105 C89.4751963,8.63217504 90.4290815,15.7063193 90.4290815,18.1387723 C90.4290815,21.6789716 87.6650144,31.6909704 82.1368801,48.1747685" id="Path-5" stroke-width="4" stroke-linecap="round"></path>
            </g>
        </g>
    </g>
</svg>