<?xml version="1.0" encoding="UTF-8"?>
<svg width="156px" height="116px" viewBox="0 0 156 116" version="1.1" xmlns="http://www.w3.org/2000/svg" xmlns:xlink="http://www.w3.org/1999/xlink">
    <!-- Generator: Sketch 49.1 (51147) - http://www.bohemiancoding.com/sketch -->
    <title>paris-head</title>
    <desc>Created with Sketch.</desc>
    <defs></defs>
    <g id="Page-1" stroke="none" stroke-width="1" fill="none" fill-rule="evenodd">
        <g id="paris-head" transform="translate(1.000000, 1.000000)">
            <path d="M61.7342655,40.330351 C42.4589439,46.4813794 56.707322,61.7428644 69.0460713,59.7360237 C78.8610588,58.1396612 78.392448,43.0596861 63.0127233,40.2531288 L61.7342655,40.330351 Z" id="Path-9" stroke="#000000" stroke-width="2" fill-opacity="0.668478261" fill="#D8D8D8"></path>
            <path d="M90.4347465,41.5387367 C87.8070927,42.1405262 85.78196,43.3453778 84.3248843,44.8904249 C77.8881762,51.7157515 82.5369704,65.1799155 95.3002161,62.6218489 C108.130198,60.0504067 103.225399,41.1521745 91.876695,41.5387367 L90.4347465,41.5387367 Z" id="Path-10" stroke="#000000" stroke-width="2" fill="#E5E5E5"></path>
            <path d="M72.8501618,45.1257153 C73.3243596,45.0464865 72.8279584,44.0140995 73.7070155,43.4426393 C75.1831699,42.4830161 78.2891505,41.8133934 79.960189,41.7654275 C81.6147491,41.7179346 82.486143,42.0514396 83.0419592,42.6144515 C83.5388218,43.1177464 83.7835009,43.8044439 84.1100215,44.5663254 C82.5736539,43.8082388 80.9835608,43.4782874 79.3397423,43.5764712 C77.840367,43.6660276 75.6771735,44.1824423 72.8501618,45.1257153 Z" id="Path-11" stroke="#000000" fill="#000000" stroke-linecap="round" stroke-linejoin="round"></path>
            <path d="M58.5186971,5.34451221 C57.5131691,5.27807884 49.9292449,4.82006205 44.4055396,6.6540727 C41.7509494,7.53546418 38.0208738,11.6774434 33.2153127,19.0800104 C33.7803806,21.0030397 39.4350258,21.7125102 37.8386869,22.9245521 C34.0578357,25.7952147 26.0739431,21.8595222 23.9577772,26.10892 L20.1089206,28.9027928 C18.7342268,31.6632668 19.7413978,35.3342328 18.0723059,37.9273259 L18.9676397,44.2939042 C14.874234,50.6533997 -3.40159904,53.7373183 0.953092544,66.5175988 C1.68752199,68.6730246 5.69550597,69.0726766 5.7835801,71.3480864 L12.8707403,73.3717565 C12.9449033,75.2877711 0.0448313339,75.8230094 5.78142267,81.6800225 C7.80495083,83.7460283 10.4198373,85.218585 13.0562793,86.4069534 C16.1563829,87.8043159 22.0923664,86.0389355 22.8208111,89.3604762 C23.2851152,91.4775958 6.56524549,96.9626367 11.3885853,102.531591 C15.5835546,107.375039 31.59322,108.960449 36.5507007,107.282254 C38.7114214,106.550812 38.0876632,101.97252 40.3348344,101.580164 C42.989644,101.116634 44.9359835,104.468168 47.4737729,105.375085 C50.3033625,106.386281 53.2812602,107.188863 56.2847203,107.280096 C61.0093536,107.423612 61.640247,99.7633243 66.4834386,99.0309787 C68.3806821,95.0808324 62.1533038,89.2772 58.5186971,82.4523827 C54.9528792,75.7567326 54.0317716,68.0688318 50.4562248,61.0722584 C49.3707125,58.9481452 44.9909483,56.1108376 44.4055396,54.1414349 C42.2205103,46.790668 47.7350262,42.0133428 50.4562248,37.4835616 C53.3741497,32.6263046 53.6234926,28.2407599 54.4600971,27.0360599 C55.8301037,25.0632676 58.5168335,24.2455778 58.5186971,22.9245521 C58.5209886,21.300139 55.6968478,19.2968978 56.3788473,18.1001348 C60.9663565,10.05004 59.274799,16.6335473 60.7774978,16.3429086 C64.8248485,15.5601057 69.1196479,20.5848971 71.261475,20.5114336 C90.6335325,19.8469821 93.1874659,11.1392357 107.840844,32.9488314 C111.68831,38.6752706 108.487396,44.0813035 107.840844,48.7268029 C107.329391,52.401617 108.882588,57.9889411 107.65962,61.0722584 C104.818089,68.2362604 98.6817292,71.7442477 100.533626,76.9293599 C101.352297,79.2215503 104.631959,80.1147818 105.310178,82.4523827 C107.255754,89.1581546 102.99819,86.7301465 102.144268,87.7278908 C100.858775,89.2298947 102.064222,91.9576046 102.144268,93.2028414 C102.22247,94.4193822 104.06092,96.3876845 107.314513,98.8977948 C111.556235,102.260214 117.912968,106.510602 124.590441,109.630712 C139.456376,116.576957 155.912008,117.921171 154.159033,91.3936397 C154.006771,89.0894787 154.129253,86.3262165 152.530173,84.6602981 C149.683551,81.6946934 141.74806,82.6518701 141.822844,78.5418244 C141.906885,73.9229562 149.443773,73.2551672 152.795537,70.0760659 C157.848332,65.2835603 143.248432,57.498225 142.789373,54.8855957 C138.037395,27.8408305 165.297769,89.2891694 144.502373,43.2915625 L141.141096,39.0586833 C140.306829,37.2133586 135.967587,39.323965 135.292301,37.414721 C133.747066,33.045862 147.578369,10.2649231 135.346237,10.151268 C93.4099005,9.76161566 131.985378,16.1076357 119.948653,6.6540727 C114.352053,2.25854083 104.799939,14.814847 101.657955,13.5751107 C98.8837667,12.4804963 99.9629547,7.71250575 98.1499721,5.34451221 C92.8834599,-1.53424509 81.2131071,-0.724170496 74.3103618,1.96381814 C70.18269,3.57116916 67.4367873,7.5530022 64,10.3475942 L58.5186971,5.34451221 Z" id="Path-15" stroke="#422A16" fill-opacity="0.444859601" fill="#8B572A"></path>
            <path d="M88.5539336,76.4521814 C90.2993258,74.958194 95.3285646,71.491538 93.0465828,71.2251714 C88.0665594,70.6438733 84.435231,69.2880941 81.1139378,69.1798857 C80.2493494,69.1517172 79.099836,70.4845092 78.3149996,70.4272193 C77.1148334,70.339612 75.6261945,69.2449424 74.6255211,69.1798857 C64.557398,68.525327 64.456479,69.9243177 63,69.1798857 C67.3159742,78.5470893 79.2674452,84.4010517 88.5539336,76.4521814 Z" id="Path-16" stroke="#302323" fill="#F49BA6" stroke-linejoin="round"></path>
            <path d="M55.9133805,76.3983631 C65.2211165,82.5882297 72.3380793,88.5953372 78.6416647,88.7613408 C84.8538499,88.9249374 90.7551108,83.3688224 100.859902,78.4478851" id="Path-17" stroke="#1C1616"></path>
            <path d="M63.6585439,70.0550353 C66.3803277,71.3192814 68.3655945,72.5528723 70.7129177,73.3524722 C73.1520305,74.1833397 75.9443319,74.5571443 78.3138547,74.6352029 C80.4092742,74.7042318 83.0806043,75.1038127 85.3453342,74.6352029 C87.8660481,74.1136257 90.0107785,72.6810887 92.9691656,71.963331" id="Path-18" stroke="#000000"></path>
            <path d="M78.7881291,54.4271989 C80.1781318,66.6331897 83.628165,66.1782387 76.3666928,64.5822018" id="Path-19" stroke="#000000"></path>
            <path d="M53.6192344,36.8532236 C54.0292269,36.805188 60.5436989,34.2492188 61.7780857,34.0189422 C69.1271165,32.6479701 66.4730619,32.5503507 72.2299079,35.814476" id="Path-20" stroke="#000000" stroke-width="3" stroke-linecap="round"></path>
            <path d="M84.4034411,39.2386693 C95.6786244,36.2576174 92.3998829,36.138256 103.726329,42.2322842" id="Path-21" stroke="#000000" stroke-width="3" stroke-linecap="round"></path>
        </g>
    </g>
</svg>